{
	"asset":{
		"generator":"Khronos glTF Blender I/O v3.5.30",
		"version":"2.0"
	},
	"scene":0,
	"scenes":[
		{
			"name":"Scene",
			"nodes":[
				3,
				4,
				7,
				11,
				12,
				13
			]
		}
	],
	"nodes":[
		{
			"mesh":0,
			"name":"SF_LODs_set_002_02_blastic_matte_0"
		},
		{
			"mesh":1,
			"name":"SF_LODs_set_002_02_sci-fi_LODs_set_001_0"
		},
		{
			"children":[
				0,
				1
			],
			"name":"SF_LODs_set_002_02",
			"rotation":[
				-0.70710688829422,
				0,
				0,
				0.7071066498756409
			],
			"scale":[
				100,
				99.99999237060547,
				99.99999237060547
			],
			"translation":[
				1.970611572265625,
				0,
				0
			]
		},
		{
			"children":[
				2
			],
			"name":"FREE - Sci-fi LODs - set 002 - public domain",
			"scale":[
				0.009999999776482582,
				0.010000001639127731,
				0.010000001639127731
			],
			"translation":[
				0,
				0.26082247495651245,
				0
			]
		},
		{
			"mesh":2,
			"name":"Cylinder012",
			"rotation":[
				0,
				0.5480375289916992,
				0,
				0.8364537358283997
			],
			"scale":[
				0.02856837958097458,
				0.02856837399303913,
				0.02856837958097458
			],
			"translation":[
				-3.9767165184020996,
				0,
				3.178142786026001
			]
		},
		{
			"mesh":3,
			"name":"Debris_Tires",
			"rotation":[
				-0.7071069478988647,
				0,
				0,
				0.7071066498756409
			],
			"scale":[
				58.600006103515625,
				58.59999465942383,
				58.59999465942383
			],
			"translation":[
				0.8120183944702148,
				0,
				-0.21976113319396973
			]
		},
		{
			"mesh":4,
			"name":"Debris_Tires.001",
			"rotation":[
				-0.09356635808944702,
				-0.7008889317512512,
				-0.700888991355896,
				0.09356633573770523
			],
			"scale":[
				58.600006103515625,
				58.600013732910156,
				58.60000228881836
			],
			"translation":[
				0.5327272415161133,
				0,
				-1.4304914474487305
			]
		},
		{
			"children":[
				5,
				6
			],
			"name":"RootNode.001",
			"rotation":[
				0,
				-0.5029878616333008,
				0,
				0.8642934560775757
			],
			"translation":[
				3.47947359085083,
				0,
				1.892756462097168
			]
		},
		{
			"mesh":5,
			"name":"Object_2"
		},
		{
			"mesh":6,
			"name":"Object_3"
		},
		{
			"mesh":7,
			"name":"Object_4"
		},
		{
			"children":[
				8,
				9,
				10
			],
			"name":"Barrels",
			"rotation":[
				-0.70710688829422,
				0,
				0,
				0.7071066498756409
			],
			"scale":[
				0.2135276198387146,
				0.2135276347398758,
				0.2135276347398758
			],
			"translation":[
				-3.5530765056610107,
				0,
				-5.842667579650879
			]
		},
		{
			"name":"Empty",
			"rotation":[
				-0.0024311188608407974,
				0.9864612817764282,
				-8.378655184060335e-05,
				0.16397632658481598
			],
			"translation":[
				3.6417458057403564,
				0.023609329015016556,
				-5.421382427215576
			]
		},
		{
			"mesh":8,
			"name":"Rectangle Construction Cone.001",
			"rotation":[
				0.00561282504349947,
				-0.9994640350341797,
				-0.0009831994539126754,
				0.03223729878664017
			],
			"translation":[
				1.3729588985443115,
				0,
				-5.39918327331543
			]
		}
	],
	"materials":[
		{
			"doubleSided":true,
			"name":"blastic_matte",
			"pbrMetallicRoughness":{
				"baseColorFactor":[
					0,
					0,
					0,
					1
				],
				"metallicFactor":0,
				"roughnessFactor":0.5775255560874939
			}
		},
		{
			"doubleSided":true,
			"emissiveFactor":[
				1,
				1,
				1
			],
			"emissiveTexture":{
				"index":0
			},
			"name":"sci-fi_LODs_set_001",
			"normalTexture":{
				"index":1
			},
			"pbrMetallicRoughness":{
				"baseColorTexture":{
					"index":2
				},
				"metallicRoughnessTexture":{
					"index":3
				}
			}
		},
		{
			"doubleSided":true,
			"name":"White",
			"pbrMetallicRoughness":{
				"baseColorFactor":[
					0.9999987483024597,
					0.999998927116394,
					1,
					1
				],
				"metallicFactor":0
			}
		}
	],
	"meshes":[
		{
			"name":"SF_LODs_set_002_02_blastic_matte_0",
			"primitives":[
				{
					"attributes":{
						"POSITION":0,
						"TEXCOORD_0":1,
						"NORMAL":2
					},
					"indices":3,
					"material":0
				}
			]
		},
		{
			"name":"SF_LODs_set_002_02_sci-fi_LODs_set_001_0",
			"primitives":[
				{
					"attributes":{
						"POSITION":4,
						"TEXCOORD_0":5,
						"TEXCOORD_1":6,
						"TEXCOORD_2":7,
						"TEXCOORD_3":8,
						"NORMAL":9
					},
					"indices":10,
					"material":1
				}
			]
		},
		{
			"name":"Cylinder012-Mesh",
			"primitives":[
				{
					"attributes":{
						"POSITION":11,
						"TEXCOORD_0":12,
						"NORMAL":13
					},
					"indices":14,
					"material":2
				}
			]
		},
		{
			"name":"Debris_Tires",
			"primitives":[
				{
					"attributes":{
						"POSITION":15,
						"NORMAL":16
					},
					"indices":17,
					"material":2
				}
			]
		},
		{
			"name":"Debris_Tires.001",
			"primitives":[
				{
					"attributes":{
						"POSITION":18,
						"NORMAL":19
					},
					"indices":17,
					"material":2
				}
			]
		},
		{
			"name":"Object_0",
			"primitives":[
				{
					"attributes":{
						"POSITION":20,
						"TEXCOORD_0":21,
						"NORMAL":22
					},
					"indices":23,
					"material":2
				}
			]
		},
		{
			"name":"Object_1",
			"primitives":[
				{
					"attributes":{
						"POSITION":24,
						"TEXCOORD_0":25,
						"NORMAL":26
					},
					"indices":27,
					"material":2
				}
			]
		},
		{
			"name":"Object_2",
			"primitives":[
				{
					"attributes":{
						"POSITION":28,
						"TEXCOORD_0":29,
						"NORMAL":30
					},
					"indices":31,
					"material":2
				}
			]
		},
		{
			"name":"defaultMaterial.001",
			"primitives":[
				{
					"attributes":{
						"POSITION":32,
						"TEXCOORD_0":33,
						"NORMAL":34
					},
					"indices":35,
					"material":2
				}
			]
		}
	],
	"textures":[
		{
			"sampler":0,
			"source":0
		},
		{
			"sampler":0,
			"source":1
		},
		{
			"sampler":0,
			"source":2
		},
		{
			"sampler":0,
			"source":3
		}
	],
	"images":[
		{
			"bufferView":11,
			"mimeType":"image/png",
			"name":"sci-fi_LODs_set_001_emissive"
		},
		{
			"bufferView":12,
			"mimeType":"image/png",
			"name":"sci-fi_LODs_set_001_normal"
		},
		{
			"bufferView":13,
			"mimeType":"image/png",
			"name":"sci-fi_LODs_set_001_baseColor"
		},
		{
			"bufferView":14,
			"mimeType":"image/png",
			"name":"sci-fi_LODs_set_001_metallicRoughness"
		}
	],
	"accessors":[
		{
			"bufferView":0,
			"componentType":5126,
			"count":213,
			"max":[
				1.2904062271118164,
				1.311131238937378,
				1.2398148775100708
			],
			"min":[
				-1.2904062271118164,
				-3.840538501739502,
				0.28197532892227173
			],
			"type":"VEC3"
		},
		{
			"bufferView":1,
			"componentType":5126,
			"count":213,
			"type":"VEC2"
		},
		{
			"bufferView":2,
			"componentType":5126,
			"count":213,
			"type":"VEC3"
		},
		{
			"bufferView":3,
			"componentType":5123,
			"count":420,
			"type":"SCALAR"
		},
		{
			"bufferView":4,
			"componentType":5126,
			"count":518,
			"max":[
				1.3343126773834229,
				2.092710494995117,
				1.2398148775100708
			],
			"min":[
				-1.3343126773834229,
				-3.840538501739502,
				0.06286027282476425
			],
			"type":"VEC3"
		},
		{
			"bufferView":5,
			"componentType":5126,
			"count":518,
			"type":"VEC2"
		},
		{
			"bufferView":6,
			"componentType":5126,
			"count":518,
			"type":"VEC2"
		},
		{
			"bufferView":7,
			"componentType":5126,
			"count":518,
			"type":"VEC2"
		},
		{
			"bufferView":8,
			"componentType":5126,
			"count":518,
			"type":"VEC2"
		},
		{
			"bufferView":9,
			"componentType":5126,
			"count":518,
			"type":"VEC3"
		},
		{
			"bufferView":10,
			"componentType":5123,
			"count":990,
			"type":"SCALAR"
		},
		{
			"bufferView":15,
			"componentType":5126,
			"count":1542,
			"max":[
				23.590768814086914,
				116.4297103881836,
				100.62419891357422
			],
			"min":[
				-11.990400314331055,
				0,
				-22.48590087890625
			],
			"type":"VEC3"
		},
		{
			"bufferView":16,
			"componentType":5126,
			"count":1542,
			"type":"VEC2"
		},
		{
			"bufferView":17,
			"componentType":5126,
			"count":1542,
			"type":"VEC3"
		},
		{
			"bufferView":18,
			"componentType":5123,
			"count":2952,
			"type":"SCALAR"
		},
		{
			"bufferView":19,
			"componentType":5126,
			"count":4004,
			"max":[
				0.020170845091342926,
				0.00975504145026207,
				0.018065687268972397
			],
			"min":[
				-0.009787572547793388,
				-0.0097747091203928,
				-0.0004930620780214667
			],
			"type":"VEC3"
		},
		{
			"bufferView":20,
			"componentType":5126,
			"count":4004,
			"type":"VEC3"
		},
		{
			"bufferView":21,
			"componentType":5123,
			"count":5328,
			"type":"SCALAR"
		},
		{
			"bufferView":22,
			"componentType":5126,
			"count":4004,
			"max":[
				0.020170845091342926,
				0.00975504145026207,
				0.018065687268972397
			],
			"min":[
				-0.009787572547793388,
				-0.0097747091203928,
				-0.0004930620780214667
			],
			"type":"VEC3"
		},
		{
			"bufferView":23,
			"componentType":5126,
			"count":4004,
			"type":"VEC3"
		},
		{
			"bufferView":24,
			"componentType":5126,
			"count":904,
			"max":[
				5.937049865722656,
				2.3299291133880615,
				8.529524803161621
			],
			"min":[
				0.9828299880027771,
				-2.563843011856079,
				-9.999999974752427e-07
			],
			"type":"VEC3"
		},
		{
			"bufferView":25,
			"componentType":5126,
			"count":904,
			"type":"VEC2"
		},
		{
			"bufferView":26,
			"componentType":5126,
			"count":904,
			"type":"VEC3"
		},
		{
			"bufferView":27,
			"componentType":5123,
			"count":2628,
			"type":"SCALAR"
		},
		{
			"bufferView":28,
			"componentType":5126,
			"count":1216,
			"max":[
				12.736288070678711,
				3.3966639041900635,
				4.6983160972595215
			],
			"min":[
				7.245175838470459,
				-4.5993452072143555,
				-0.6615700125694275
			],
			"type":"VEC3"
		},
		{
			"bufferView":29,
			"componentType":5126,
			"count":1216,
			"type":"VEC2"
		},
		{
			"bufferView":30,
			"componentType":5126,
			"count":1216,
			"type":"VEC3"
		},
		{
			"bufferView":31,
			"componentType":5123,
			"count":3234,
			"type":"SCALAR"
		},
		{
			"bufferView":32,
			"componentType":5126,
			"count":1042,
			"max":[
				3.1080169677734375,
				-1.621508002281189,
				8.996803283691406
			],
			"min":[
				-2.978053092956543,
				-9.047316551208496,
				-0.260470986366272
			],
			"type":"VEC3"
		},
		{
			"bufferView":33,
			"componentType":5126,
			"count":1042,
			"type":"VEC2"
		},
		{
			"bufferView":34,
			"componentType":5126,
			"count":1042,
			"type":"VEC3"
		},
		{
			"bufferView":35,
			"componentType":5123,
			"count":2778,
			"type":"SCALAR"
		},
		{
			"bufferView":36,
			"componentType":5126,
			"count":1467,
			"max":[
				0.2221764177083969,
				1.0141572952270508,
				0.25070720911026
			],
			"min":[
				-4.144193649291992,
				-0.04332602024078369,
				-3.375208854675293
			],
			"type":"VEC3"
		},
		{
			"bufferView":37,
			"componentType":5126,
			"count":1467,
			"type":"VEC2"
		},
		{
			"bufferView":38,
			"componentType":5126,
			"count":1467,
			"type":"VEC3"
		},
		{
			"bufferView":39,
			"componentType":5123,
			"count":5010,
			"type":"SCALAR"
		}
	],
	"bufferViews":[
		{
			"buffer":0,
			"byteLength":2556,
			"byteOffset":0,
			"target":34962
		},
		{
			"buffer":0,
			"byteLength":1704,
			"byteOffset":2556,
			"target":34962
		},
		{
			"buffer":0,
			"byteLength":2556,
			"byteOffset":4260,
			"target":34962
		},
		{
			"buffer":0,
			"byteLength":840,
			"byteOffset":6816,
			"target":34963
		},
		{
			"buffer":0,
			"byteLength":6216,
			"byteOffset":7656,
			"target":34962
		},
		{
			"buffer":0,
			"byteLength":4144,
			"byteOffset":13872,
			"target":34962
		},
		{
			"buffer":0,
			"byteLength":4144,
			"byteOffset":18016,
			"target":34962
		},
		{
			"buffer":0,
			"byteLength":4144,
			"byteOffset":22160,
			"target":34962
		},
		{
			"buffer":0,
			"byteLength":4144,
			"byteOffset":26304,
			"target":34962
		},
		{
			"buffer":0,
			"byteLength":6216,
			"byteOffset":30448,
			"target":34962
		},
		{
			"buffer":0,
			"byteLength":1980,
			"byteOffset":36664,
			"target":34963
		},
		{
			"buffer":0,
			"byteLength":8270,
			"byteOffset":38644
		},
		{
			"buffer":0,
			"byteLength":75266,
			"byteOffset":46916
		},
		{
			"buffer":0,
			"byteLength":147973,
			"byteOffset":122184
		},
		{
			"buffer":0,
			"byteLength":15799,
			"byteOffset":270160
		},
		{
			"buffer":0,
			"byteLength":18504,
			"byteOffset":285960,
			"target":34962
		},
		{
			"buffer":0,
			"byteLength":12336,
			"byteOffset":304464,
			"target":34962
		},
		{
			"buffer":0,
			"byteLength":18504,
			"byteOffset":316800,
			"target":34962
		},
		{
			"buffer":0,
			"byteLength":5904,
			"byteOffset":335304,
			"target":34963
		},
		{
			"buffer":0,
			"byteLength":48048,
			"byteOffset":341208,
			"target":34962
		},
		{
			"buffer":0,
			"byteLength":48048,
			"byteOffset":389256,
			"target":34962
		},
		{
			"buffer":0,
			"byteLength":10656,
			"byteOffset":437304,
			"target":34963
		},
		{
			"buffer":0,
			"byteLength":48048,
			"byteOffset":447960,
			"target":34962
		},
		{
			"buffer":0,
			"byteLength":48048,
			"byteOffset":496008,
			"target":34962
		},
		{
			"buffer":0,
			"byteLength":10848,
			"byteOffset":544056,
			"target":34962
		},
		{
			"buffer":0,
			"byteLength":7232,
			"byteOffset":554904,
			"target":34962
		},
		{
			"buffer":0,
			"byteLength":10848,
			"byteOffset":562136,
			"target":34962
		},
		{
			"buffer":0,
			"byteLength":5256,
			"byteOffset":572984,
			"target":34963
		},
		{
			"buffer":0,
			"byteLength":14592,
			"byteOffset":578240,
			"target":34962
		},
		{
			"buffer":0,
			"byteLength":9728,
			"byteOffset":592832,
			"target":34962
		},
		{
			"buffer":0,
			"byteLength":14592,
			"byteOffset":602560,
			"target":34962
		},
		{
			"buffer":0,
			"byteLength":6468,
			"byteOffset":617152,
			"target":34963
		},
		{
			"buffer":0,
			"byteLength":12504,
			"byteOffset":623620,
			"target":34962
		},
		{
			"buffer":0,
			"byteLength":8336,
			"byteOffset":636124,
			"target":34962
		},
		{
			"buffer":0,
			"byteLength":12504,
			"byteOffset":644460,
			"target":34962
		},
		{
			"buffer":0,
			"byteLength":5556,
			"byteOffset":656964,
			"target":34963
		},
		{
			"buffer":0,
			"byteLength":17604,
			"byteOffset":662520,
			"target":34962
		},
		{
			"buffer":0,
			"byteLength":11736,
			"byteOffset":680124,
			"target":34962
		},
		{
			"buffer":0,
			"byteLength":17604,
			"byteOffset":691860,
			"target":34962
		},
		{
			"buffer":0,
			"byteLength":10020,
			"byteOffset":709464,
			"target":34963
		}
	],
	"samplers":[
		{
			"magFilter":9729,
			"minFilter":9987
		}
	],
	"buffers":[
		{
			"byteLength":719484,
			"uri":"data:application/octet-stream;base64,"
		}
	]
}
