{
  "asset" : {
      "generator" : "Khronos glTF Blender I/O v3.3.27",
      "version" : "2.0"
  },
  "extensionsUsed" : [
      "KHR_materials_emissive_strength",
      "KHR_materials_specular",
      "KHR_materials_ior"
  ],
  "scene" : 0,
  "scenes" : [
      {
          "name" : "Scene",
          "nodes" : [
              3
          ]
      }
  ],
  "nodes" : [
      {
          "mesh" : 0,
          "name" : "body"
      },
      {
          "mesh" : 1,
          "name" : "steer"
      },
      {
          "mesh" : 2,
          "name" : "tires"
      },
      {
          "children" : [
              0,
              1,
              2
          ],
          "name" : "tesla_ct_LOD0"
      }
  ],
  "materials" : [
      {
          "doubleSided" : true,
          "emissiveFactor" : [
              1,
              1,
              1
          ],
          "extensions" : {
              "KHR_materials_emissive_strength" : {
                  "emissiveStrength" : 1.7999999523162842
              }
          },
          "name" : "lights",
          "pbrMetallicRoughness" : {
              "metallicFactor" : 0,
              "roughnessFactor" : 0.5
          }
      },
      {
          "doubleSided" : true,
          "name" : "body",
          "pbrMetallicRoughness" : {
              "baseColorFactor" : [
                  0.28101247549057007,
                  0.28101247549057007,
                  0.28101247549057007,
                  1
              ],
              "metallicFactor" : 0.8142856955528259,
              "roughnessFactor" : 0.22793594002723694
          }
      },
      {
          "doubleSided" : true,
          "name" : "glass",
          "pbrMetallicRoughness" : {
              "baseColorFactor" : [
                  0.33833959698677063,
                  0.320695698261261,
                  0.33053308725357056,
                  0.47330963611602783
              ],
              "metallicFactor" : 0,
              "roughnessFactor" : 0.09430605173110962
          }
      },
      {
          "doubleSided" : true,
          "name" : "glassframes",
          "pbrMetallicRoughness" : {
              "baseColorFactor" : [
                  0,
                  0,
                  0,
                  1
              ],
              "metallicFactor" : 0,
              "roughnessFactor" : 0.4571428596973419
          }
      },
      {
          "doubleSided" : true,
          "emissiveFactor" : [
              0.5224846601486206,
              0.029912710189819336,
              0.015736427158117294
          ],
          "name" : "warninglights",
          "pbrMetallicRoughness" : {
              "baseColorFactor" : [
                  0.47207435965538025,
                  0.0028036772273480892,
                  0,
                  1
              ],
              "metallicFactor" : 0,
              "roughnessFactor" : 0.5
          }
      },
      {
          "doubleSided" : true,
          "name" : "black",
          "pbrMetallicRoughness" : {
              "baseColorFactor" : [
                  0,
                  0,
                  0,
                  1
              ],
              "metallicFactor" : 0,
              "roughnessFactor" : 0.16428571939468384
          }
      },
      {
          "doubleSided" : true,
          "name" : "shader",
          "pbrMetallicRoughness" : {
              "baseColorFactor" : [
                  0,
                  0,
                  0,
                  1
              ],
              "metallicFactor" : 0,
              "roughnessFactor" : 0.5
          }
      },
      {
          "doubleSided" : true,
          "extensions" : {
              "KHR_materials_specular" : {
                  "specularColorFactor" : [
                      2.371357614441398,
                      2.371357614441398,
                      2.371357614441398
                  ]
              },
              "KHR_materials_ior" : {
                  "ior" : 1.4500000476837158
              }
          },
          "name" : "gray",
          "pbrMetallicRoughness" : {
              "baseColorFactor" : [
                  0.18326298892498016,
                  0.18326298892498016,
                  0.18326298892498016,
                  0
              ],
              "metallicFactor" : 0,
              "roughnessFactor" : 0.690034806728363
          }
      },
      {
          "doubleSided" : true,
          "name" : "tires",
          "pbrMetallicRoughness" : {
              "baseColorFactor" : [
                  0,
                  0,
                  0,
                  1
              ],
              "metallicFactor" : 0
          }
      },
      {
          "doubleSided" : true,
          "name" : "rims",
          "pbrMetallicRoughness" : {
              "baseColorFactor" : [
                  0.028144950047135353,
                  0.028144950047135353,
                  0.028144950047135353,
                  1
              ],
              "metallicFactor" : 0
          }
      }
  ],
  "meshes" : [
      {
          "name" : "interior.001",
          "primitives" : [
              {
                  "attributes" : {
                      "POSITION" : 0,
                      "NORMAL" : 1,
                      "TEXCOORD_0" : 2
                  },
                  "indices" : 3,
                  "material" : 0
              },
              {
                  "attributes" : {
                      "POSITION" : 4,
                      "NORMAL" : 5,
                      "TEXCOORD_0" : 6
                  },
                  "indices" : 7,
                  "material" : 1
              },
              {
                  "attributes" : {
                      "POSITION" : 8,
                      "NORMAL" : 9,
                      "TEXCOORD_0" : 10
                  },
                  "indices" : 11,
                  "material" : 2
              },
              {
                  "attributes" : {
                      "POSITION" : 12,
                      "NORMAL" : 13,
                      "TEXCOORD_0" : 14
                  },
                  "indices" : 15,
                  "material" : 3
              },
              {
                  "attributes" : {
                      "POSITION" : 16,
                      "NORMAL" : 17,
                      "TEXCOORD_0" : 18
                  },
                  "indices" : 19,
                  "material" : 4
              },
              {
                  "attributes" : {
                      "POSITION" : 20,
                      "NORMAL" : 21,
                      "TEXCOORD_0" : 22
                  },
                  "indices" : 23,
                  "material" : 5
              },
              {
                  "attributes" : {
                      "POSITION" : 24,
                      "NORMAL" : 25,
                      "TEXCOORD_0" : 26
                  },
                  "indices" : 27,
                  "material" : 6
              }
          ]
      },
      {
          "name" : "interior_nMIR",
          "primitives" : [
              {
                  "attributes" : {
                      "POSITION" : 28,
                      "NORMAL" : 29,
                      "TEXCOORD_0" : 30
                  },
                  "indices" : 31,
                  "material" : 7
              }
          ]
      },
      {
          "name" : "tires.001",
          "primitives" : [
              {
                  "attributes" : {
                      "POSITION" : 32,
                      "NORMAL" : 33,
                      "TEXCOORD_0" : 34
                  },
                  "indices" : 35,
                  "material" : 8
              },
              {
                  "attributes" : {
                      "POSITION" : 36,
                      "NORMAL" : 37,
                      "TEXCOORD_0" : 38
                  },
                  "indices" : 39,
                  "material" : 9
              }
          ]
      }
  ],
  "accessors" : [
      {
          "bufferView" : 0,
          "componentType" : 5126,
          "count" : 58,
          "max" : [
              0.9660871028900146,
              1.120422124862671,
              2.8527932167053223
          ],
          "min" : [
              -0.9660871028900146,
              0.5265796780586243,
              2.5553646087646484
          ],
          "type" : "VEC3"
      },
      {
          "bufferView" : 1,
          "componentType" : 5126,
          "count" : 58,
          "type" : "VEC3"
      },
      {
          "bufferView" : 2,
          "componentType" : 5126,
          "count" : 58,
          "type" : "VEC2"
      },
      {
          "bufferView" : 3,
          "componentType" : 5123,
          "count" : 96,
          "type" : "SCALAR"
      },
      {
          "bufferView" : 4,
          "componentType" : 5126,
          "count" : 400,
          "max" : [
              0.9660871028900146,
              1.8399403095245361,
              2.872267246246338
          ],
          "min" : [
              -0.9660871028900146,
              0.4286006689071655,
              -2.8509182929992676
          ],
          "type" : "VEC3"
      },
      {
          "bufferView" : 5,
          "componentType" : 5126,
          "count" : 400,
          "type" : "VEC3"
      },
      {
          "bufferView" : 6,
          "componentType" : 5126,
          "count" : 400,
          "type" : "VEC2"
      },
      {
          "bufferView" : 7,
          "componentType" : 5123,
          "count" : 942,
          "type" : "SCALAR"
      },
      {
          "bufferView" : 8,
          "componentType" : 5126,
          "count" : 54,
          "max" : [
              0.9660871028900146,
              1.8280061483383179,
              1.9948409795761108
          ],
          "min" : [
              -0.9660871028900146,
              1.2799469232559204,
              -2.814735174179077
          ],
          "type" : "VEC3"
      },
      {
          "bufferView" : 9,
          "componentType" : 5126,
          "count" : 54,
          "type" : "VEC3"
      },
      {
          "bufferView" : 10,
          "componentType" : 5126,
          "count" : 54,
          "type" : "VEC2"
      },
      {
          "bufferView" : 11,
          "componentType" : 5123,
          "count" : 114,
          "type" : "SCALAR"
      },
      {
          "bufferView" : 12,
          "componentType" : 5126,
          "count" : 76,
          "max" : [
              0.9186181426048279,
              1.8399403095245361,
              2.1443939208984375
          ],
          "min" : [
              -0.9186181426048279,
              1.2518349885940552,
              -0.8399462699890137
          ],
          "type" : "VEC3"
      },
      {
          "bufferView" : 13,
          "componentType" : 5126,
          "count" : 76,
          "type" : "VEC3"
      },
      {
          "bufferView" : 14,
          "componentType" : 5126,
          "count" : 76,
          "type" : "VEC2"
      },
      {
          "bufferView" : 15,
          "componentType" : 5123,
          "count" : 204,
          "type" : "SCALAR"
      },
      {
          "bufferView" : 16,
          "componentType" : 5126,
          "count" : 14,
          "max" : [
              0.9541900753974915,
              1.3675533533096313,
              -2.68047833442688
          ],
          "min" : [
              -0.9541900753974915,
              0.7088931202888489,
              -2.8126003742218018
          ],
          "type" : "VEC3"
      },
      {
          "bufferView" : 17,
          "componentType" : 5126,
          "count" : 14,
          "type" : "VEC3"
      },
      {
          "bufferView" : 18,
          "componentType" : 5126,
          "count" : 14,
          "type" : "VEC2"
      },
      {
          "bufferView" : 19,
          "componentType" : 5123,
          "count" : 24,
          "type" : "SCALAR"
      },
      {
          "bufferView" : 20,
          "componentType" : 5126,
          "count" : 2165,
          "max" : [
              1.0585089921951294,
              1.834335207939148,
              2.8527932167053223
          ],
          "min" : [
              -1.0585089921951294,
              0.3319977819919586,
              -2.850919246673584
          ],
          "type" : "VEC3"
      },
      {
          "bufferView" : 21,
          "componentType" : 5126,
          "count" : 2165,
          "type" : "VEC3"
      },
      {
          "bufferView" : 22,
          "componentType" : 5126,
          "count" : 2165,
          "type" : "VEC2"
      },
      {
          "bufferView" : 23,
          "componentType" : 5123,
          "count" : 4344,
          "type" : "SCALAR"
      },
      {
          "bufferView" : 24,
          "componentType" : 5126,
          "count" : 400,
          "max" : [
              0.9757479429244995,
              1.847099781036377,
              2.8948724269866943
          ],
          "min" : [
              -0.9757479429244995,
              0.42164671421051025,
              -2.885545015335083
          ],
          "type" : "VEC3"
      },
      {
          "bufferView" : 25,
          "componentType" : 5126,
          "count" : 400,
          "type" : "VEC3"
      },
      {
          "bufferView" : 26,
          "componentType" : 5126,
          "count" : 400,
          "type" : "VEC2"
      },
      {
          "bufferView" : 27,
          "componentType" : 5123,
          "count" : 942,
          "type" : "SCALAR"
      },
      {
          "bufferView" : 28,
          "componentType" : 5126,
          "count" : 510,
          "max" : [
              0.6557753682136536,
              1.717677354812622,
              1.1646767854690552
          ],
          "min" : [
              -0.28739872574806213,
              0.7186722755432129,
              -0.7203754186630249
          ],
          "type" : "VEC3"
      },
      {
          "bufferView" : 29,
          "componentType" : 5126,
          "count" : 510,
          "type" : "VEC3"
      },
      {
          "bufferView" : 30,
          "componentType" : 5126,
          "count" : 510,
          "type" : "VEC2"
      },
      {
          "bufferView" : 31,
          "componentType" : 5123,
          "count" : 1272,
          "type" : "SCALAR"
      },
      {
          "bufferView" : 32,
          "componentType" : 5126,
          "count" : 6064,
          "max" : [
              1.0576070547103882,
              0.9050523638725281,
              2.4358086585998535
          ],
          "min" : [
              -1.0576070547103882,
              -0.004426128696650267,
              -2.2150719165802
          ],
          "type" : "VEC3"
      },
      {
          "bufferView" : 33,
          "componentType" : 5126,
          "count" : 6064,
          "type" : "VEC3"
      },
      {
          "bufferView" : 34,
          "componentType" : 5126,
          "count" : 6064,
          "type" : "VEC2"
      },
      {
          "bufferView" : 35,
          "componentType" : 5123,
          "count" : 14112,
          "type" : "SCALAR"
      },
      {
          "bufferView" : 36,
          "componentType" : 5126,
          "count" : 1208,
          "max" : [
              1.066735029220581,
              0.7957043647766113,
              2.3278298377990723
          ],
          "min" : [
              -1.066735029220581,
              0.10491476207971573,
              -2.087048053741455
          ],
          "type" : "VEC3"
      },
      {
          "bufferView" : 37,
          "componentType" : 5126,
          "count" : 1208,
          "type" : "VEC3"
      },
      {
          "bufferView" : 38,
          "componentType" : 5126,
          "count" : 1208,
          "type" : "VEC2"
      },
      {
          "bufferView" : 39,
          "componentType" : 5123,
          "count" : 1764,
          "type" : "SCALAR"
      }
  ],
  "bufferViews" : [
      {
          "buffer" : 0,
          "byteLength" : 696,
          "byteOffset" : 0,
          "target" : 34962
      },
      {
          "buffer" : 0,
          "byteLength" : 696,
          "byteOffset" : 696,
          "target" : 34962
      },
      {
          "buffer" : 0,
          "byteLength" : 464,
          "byteOffset" : 1392,
          "target" : 34962
      },
      {
          "buffer" : 0,
          "byteLength" : 192,
          "byteOffset" : 1856,
          "target" : 34963
      },
      {
          "buffer" : 0,
          "byteLength" : 4800,
          "byteOffset" : 2048,
          "target" : 34962
      },
      {
          "buffer" : 0,
          "byteLength" : 4800,
          "byteOffset" : 6848,
          "target" : 34962
      },
      {
          "buffer" : 0,
          "byteLength" : 3200,
          "byteOffset" : 11648,
          "target" : 34962
      },
      {
          "buffer" : 0,
          "byteLength" : 1884,
          "byteOffset" : 14848,
          "target" : 34963
      },
      {
          "buffer" : 0,
          "byteLength" : 648,
          "byteOffset" : 16732,
          "target" : 34962
      },
      {
          "buffer" : 0,
          "byteLength" : 648,
          "byteOffset" : 17380,
          "target" : 34962
      },
      {
          "buffer" : 0,
          "byteLength" : 432,
          "byteOffset" : 18028,
          "target" : 34962
      },
      {
          "buffer" : 0,
          "byteLength" : 228,
          "byteOffset" : 18460,
          "target" : 34963
      },
      {
          "buffer" : 0,
          "byteLength" : 912,
          "byteOffset" : 18688,
          "target" : 34962
      },
      {
          "buffer" : 0,
          "byteLength" : 912,
          "byteOffset" : 19600,
          "target" : 34962
      },
      {
          "buffer" : 0,
          "byteLength" : 608,
          "byteOffset" : 20512,
          "target" : 34962
      },
      {
          "buffer" : 0,
          "byteLength" : 408,
          "byteOffset" : 21120,
          "target" : 34963
      },
      {
          "buffer" : 0,
          "byteLength" : 168,
          "byteOffset" : 21528,
          "target" : 34962
      },
      {
          "buffer" : 0,
          "byteLength" : 168,
          "byteOffset" : 21696,
          "target" : 34962
      },
      {
          "buffer" : 0,
          "byteLength" : 112,
          "byteOffset" : 21864,
          "target" : 34962
      },
      {
          "buffer" : 0,
          "byteLength" : 48,
          "byteOffset" : 21976,
          "target" : 34963
      },
      {
          "buffer" : 0,
          "byteLength" : 25980,
          "byteOffset" : 22024,
          "target" : 34962
      },
      {
          "buffer" : 0,
          "byteLength" : 25980,
          "byteOffset" : 48004,
          "target" : 34962
      },
      {
          "buffer" : 0,
          "byteLength" : 17320,
          "byteOffset" : 73984,
          "target" : 34962
      },
      {
          "buffer" : 0,
          "byteLength" : 8688,
          "byteOffset" : 91304,
          "target" : 34963
      },
      {
          "buffer" : 0,
          "byteLength" : 4800,
          "byteOffset" : 99992,
          "target" : 34962
      },
      {
          "buffer" : 0,
          "byteLength" : 4800,
          "byteOffset" : 104792,
          "target" : 34962
      },
      {
          "buffer" : 0,
          "byteLength" : 3200,
          "byteOffset" : 109592,
          "target" : 34962
      },
      {
          "buffer" : 0,
          "byteLength" : 1884,
          "byteOffset" : 112792,
          "target" : 34963
      },
      {
          "buffer" : 0,
          "byteLength" : 6120,
          "byteOffset" : 114676,
          "target" : 34962
      },
      {
          "buffer" : 0,
          "byteLength" : 6120,
          "byteOffset" : 120796,
          "target" : 34962
      },
      {
          "buffer" : 0,
          "byteLength" : 4080,
          "byteOffset" : 126916,
          "target" : 34962
      },
      {
          "buffer" : 0,
          "byteLength" : 2544,
          "byteOffset" : 130996,
          "target" : 34963
      },
      {
          "buffer" : 0,
          "byteLength" : 72768,
          "byteOffset" : 133540,
          "target" : 34962
      },
      {
          "buffer" : 0,
          "byteLength" : 72768,
          "byteOffset" : 206308,
          "target" : 34962
      },
      {
          "buffer" : 0,
          "byteLength" : 48512,
          "byteOffset" : 279076,
          "target" : 34962
      },
      {
          "buffer" : 0,
          "byteLength" : 28224,
          "byteOffset" : 327588,
          "target" : 34963
      },
      {
          "buffer" : 0,
          "byteLength" : 14496,
          "byteOffset" : 355812,
          "target" : 34962
      },
      {
          "buffer" : 0,
          "byteLength" : 14496,
          "byteOffset" : 370308,
          "target" : 34962
      },
      {
          "buffer" : 0,
          "byteLength" : 9664,
          "byteOffset" : 384804,
          "target" : 34962
      },
      {
          "buffer" : 0,
          "byteLength" : 3528,
          "byteOffset" : 394468,
          "target" : 34963
      }
  ],
  "buffers" : [
      {
          "byteLength" : 397996,
          "uri" : "data:application/octet-stream;base64,"
      }
  ]
}